<svg width="335" height="102" viewBox="0 0 335 102" fill="none" xmlns="http://www.w3.org/2000/svg">
<path d="M332.729 3.61411C332.727 3.66311 332.724 3.71209 332.719 3.76285C332.637 4.55045 332.104 5.20332 331.592 5.8054C318.782 20.9082 303.385 38.1654 288.239 50.9001C242.42 89.4298 178.463 107.282 119.338 98.4417C98.6942 95.3543 78.5246 88.7227 60.1474 78.7656C51.2114 73.9244 42.4008 67.6166 34.4315 60.9027C26.6452 54.3411 18.3693 46.1045 10.4628 38.9338C10.2746 38.764 9.96283 38.9303 9.92799 39.1823C9.52735 42.1262 5.68646 54.9799 5.3015 55.9216C3.57352 60.1536 -0.26916 59.6408 0.450251 54.6317C1.29682 48.7386 2.55625 43.978 3.96023 38.274C4.43055 36.3592 5.01059 32.2007 6.46683 30.8775C8.19132 29.311 10.7206 29.6943 13.046 29.619C18.284 29.4458 24.2169 28.9382 29.4723 29.4615C34.3166 29.9446 38.9448 34.6212 30.979 34.812C25.7672 34.9363 19.944 35.0605 14.6904 34.8908C14.4988 34.8838 14.403 35.1166 14.5458 35.2443C17.7109 38.0762 22.9993 43.4704 25.5373 46.2218C65.5421 89.5978 139.002 103.222 196.057 90.0756C207.226 87.5028 218.202 84.0758 228.85 79.8227C267.686 64.3104 302.277 32.5699 325.237 4.9775C326.359 3.62982 327.315 1.97588 328.974 1.42281C330.585 0.885489 332.771 1.95138 332.729 3.61411Z" fill="#0BA5EC"/>
</svg>
