<svg width="48" height="48" viewBox="0 0 48 48" fill="none" xmlns="http://www.w3.org/2000/svg">
<rect width="48" height="48" rx="24" fill="white"/>
<path d="M20.5831 39V31.6329C18.8475 31.2472 17.3288 30.5787 16.0271 29.6271C14.7525 28.6501 13.7627 27.4286 13.0576 25.9629C12.3525 24.4715 12 22.7614 12 20.8328V12H18.6712V21.18C18.6712 22.1572 18.8881 23.0572 19.322 23.88C19.7559 24.6772 20.3661 25.32 21.1526 25.8086C21.9661 26.2714 22.9153 26.5029 24 26.5029C25.0847 26.5029 26.0203 26.2714 26.8068 25.8086C27.6204 25.32 28.2441 24.6772 28.678 23.88C29.1118 23.0572 29.3288 22.1572 29.3288 21.18V12H36V20.8328C36 22.7614 35.6475 24.4715 34.9424 25.9629C34.2373 27.4286 33.2339 28.6501 31.9322 29.6271C30.6305 30.6043 29.1118 31.2729 27.3763 31.6329V39H20.5831Z" fill="#0BA5EC"/>
</svg>
