<svg width="118" height="32" viewBox="0 0 118 32" fill="none" xmlns="http://www.w3.org/2000/svg">
<path d="M7.64702 30.1119V23.9999C6.28169 23.6799 5.08702 23.1253 4.06302 22.3359C3.06035 21.5253 2.28169 20.5119 1.72702 19.2959C1.17235 18.0586 0.89502 16.6399 0.89502 15.0399V7.71191H6.14302V15.3279C6.14302 16.1386 6.31369 16.8853 6.65502 17.5679C6.99635 18.2293 7.47635 18.7626 8.09502 19.1679C8.73502 19.5519 9.48169 19.7439 10.335 19.7439C11.1883 19.7439 11.9243 19.5519 12.543 19.1679C13.183 18.7626 13.6737 18.2293 14.015 17.5679C14.3563 16.8853 14.527 16.1386 14.527 15.3279V7.71191H19.775V15.0399C19.775 16.6399 19.4977 18.0586 18.943 19.2959C18.3883 20.5119 17.599 21.5253 16.575 22.3359C15.551 23.1466 14.3563 23.7013 12.991 23.9999V30.1119H7.64702Z" fill="#0BA5EC"/>
<path d="M36.4488 6.33591C35.7874 6.33591 35.2114 6.10124 34.7208 5.63191C34.2514 5.14124 34.0168 4.56524 34.0168 3.90391C34.0168 3.24258 34.2514 2.67724 34.7208 2.20791C35.2114 1.73857 35.7874 1.50391 36.4488 1.50391C37.1101 1.50391 37.6754 1.73857 38.1448 2.20791C38.6141 2.67724 38.8488 3.24258 38.8488 3.90391C38.8488 4.56524 38.6141 5.14124 38.1448 5.63191C37.6754 6.10124 37.1101 6.33591 36.4488 6.33591ZM29.6327 6.33591C28.9714 6.33591 28.3954 6.10124 27.9047 5.63191C27.4354 5.14124 27.2008 4.56524 27.2008 3.90391C27.2008 3.24258 27.4354 2.67724 27.9047 2.20791C28.3954 1.73857 28.9714 1.50391 29.6327 1.50391C30.2941 1.50391 30.8594 1.73857 31.3287 2.20791C31.7981 2.67724 32.0328 3.24258 32.0328 3.90391C32.0328 4.56524 31.7981 5.14124 31.3287 5.63191C30.8594 6.10124 30.2941 6.33591 29.6327 6.33591ZM33.0247 30.4959C31.1688 30.4959 29.5154 30.1226 28.0647 29.3759C26.6354 28.6293 25.5154 27.5626 24.7048 26.1759C23.8941 24.7893 23.4888 23.1359 23.4888 21.2159V7.71191H28.8007V21.5039C28.8007 22.3359 28.9714 23.0933 29.3127 23.7759C29.6541 24.4373 30.1447 24.9706 30.7847 25.3759C31.4248 25.7599 32.1714 25.9519 33.0247 25.9519C33.8994 25.9519 34.6461 25.7599 35.2648 25.3759C35.8834 24.9706 36.3634 24.4373 36.7048 23.7759C37.0674 23.0933 37.2488 22.3359 37.2488 21.5039V7.71191H42.5608V21.2159C42.5608 23.1359 42.1448 24.7893 41.3128 26.1759C40.5021 27.5626 39.3821 28.6293 37.9528 29.3759C36.5234 30.1226 34.8808 30.4959 33.0247 30.4959Z" fill="#101828"/>
<path d="M46.27 30.112V20.416C46.27 19.072 46.5793 17.8667 47.198 16.8C47.838 15.712 48.7447 14.8587 49.918 14.24C51.0913 13.6214 52.4887 13.312 54.11 13.312C54.9207 13.312 55.6673 13.408 56.35 13.6C57.0327 13.7707 57.6513 14.016 58.206 14.336C58.782 14.6347 59.2727 14.9974 59.678 15.424H59.742C60.1687 14.9974 60.6593 14.6347 61.214 14.336C61.79 14.016 62.4193 13.7707 63.102 13.6C63.806 13.408 64.5633 13.312 65.374 13.312C66.9953 13.312 68.3927 13.6214 69.566 14.24C70.7393 14.8587 71.646 15.712 72.286 16.8C72.926 17.8667 73.246 19.072 73.246 20.416V30.112H68.254V20.576C68.254 20.0427 68.1153 19.5627 67.838 19.136C67.582 18.688 67.23 18.3254 66.782 18.048C66.334 17.7707 65.822 17.632 65.246 17.632C64.67 17.632 64.1473 17.7707 63.678 18.048C63.23 18.3254 62.878 18.688 62.622 19.136C62.366 19.5627 62.238 20.0427 62.238 20.576V30.112H57.278V20.576C57.278 20.0427 57.1393 19.5627 56.862 19.136C56.606 18.688 56.2433 18.3254 55.774 18.048C55.326 17.7707 54.814 17.632 54.238 17.632C53.662 17.632 53.1393 17.7707 52.67 18.048C52.222 18.3254 51.87 18.688 51.614 19.136C51.358 19.5627 51.23 20.0427 51.23 20.576V30.112H46.27Z" fill="#101828"/>
<path d="M76.9583 30.1118V26.1758H84.8623C85.0757 26.1758 85.2677 26.1332 85.4383 26.0478C85.609 25.9412 85.7477 25.8025 85.8543 25.6318C85.961 25.4612 86.0143 25.2798 86.0143 25.0878C86.0143 24.8745 85.961 24.6825 85.8543 24.5118C85.7477 24.3412 85.609 24.2132 85.4383 24.1278C85.2677 24.0212 85.0757 23.9678 84.8623 23.9678H81.9824C80.9157 23.9678 79.945 23.7972 79.0703 23.4558C78.217 23.0932 77.5344 22.5385 77.0224 21.7918C76.5317 21.0238 76.2864 20.0318 76.2864 18.8158C76.2864 17.8772 76.5103 17.0238 76.9583 16.2558C77.4277 15.4878 78.057 14.8692 78.8463 14.3998C79.657 13.9305 80.5423 13.6958 81.5023 13.6958H89.4063V17.6638H82.2703C81.9717 17.6638 81.7157 17.7598 81.5023 17.9518C81.3103 18.1438 81.2143 18.3785 81.2143 18.6558C81.2143 18.9545 81.3103 19.2105 81.5023 19.4238C81.7157 19.6158 81.9717 19.7118 82.2703 19.7118H85.0863C86.281 19.7118 87.305 19.8932 88.1583 20.2558C89.033 20.5972 89.705 21.1518 90.1744 21.9198C90.665 22.6878 90.9104 23.6798 90.9104 24.8958C90.9104 25.8558 90.665 26.7305 90.1744 27.5198C89.705 28.3092 89.065 28.9385 88.2543 29.4078C87.465 29.8772 86.569 30.1118 85.5663 30.1118H76.9583Z" fill="#101828"/>
<path d="M102.471 30.112C100.615 30.112 98.983 29.7707 97.575 29.088C96.167 28.384 95.0683 27.424 94.279 26.208C93.511 24.9707 93.127 23.5414 93.127 21.92C93.127 20.128 93.5003 18.592 94.247 17.312C94.9937 16.032 95.9857 15.0507 97.223 14.368C98.4817 13.664 99.8683 13.312 101.383 13.312C103.111 13.312 104.551 13.6747 105.703 14.4C106.876 15.1254 107.762 16.1174 108.359 17.376C108.956 18.6134 109.255 20.032 109.255 21.632C109.255 21.9094 109.234 22.24 109.191 22.624C109.17 22.9867 109.138 23.2747 109.095 23.488H98.343C98.471 24.0427 98.7163 24.512 99.079 24.896C99.4417 25.28 99.9003 25.568 100.455 25.76C101.01 25.9307 101.628 26.016 102.311 26.016H107.335V30.112H102.471ZM98.215 20.384H104.455C104.412 20.0427 104.348 19.712 104.263 19.392C104.178 19.072 104.039 18.7947 103.847 18.56C103.676 18.304 103.474 18.0907 103.239 17.92C103.004 17.728 102.727 17.5787 102.407 17.472C102.108 17.3654 101.767 17.312 101.383 17.312C100.892 17.312 100.455 17.3974 100.071 17.568C99.687 17.7387 99.367 17.9734 99.111 18.272C98.855 18.5494 98.6523 18.88 98.503 19.264C98.375 19.6267 98.279 20 98.215 20.384Z" fill="#101828"/>
<path d="M112.145 30.1119V6.75195H117.105V30.1119H112.145Z" fill="#101828"/>
<path d="M27.095 1.4043H32.095V6.40429H27.095V1.4043Z" fill="#101828"/>
<path d="M33.895 1.4043H38.895V6.40429H33.895V1.4043Z" fill="#101828"/>
</svg>
