<svg width="48" height="48" viewBox="0 0 48 48" fill="none" xmlns="http://www.w3.org/2000/svg">
<rect width="48" height="48" rx="24" fill="#F2F9FE"/>
<path fill-rule="evenodd" clip-rule="evenodd" d="M25.75 14C26.3023 14 26.75 14.4477 26.75 15V19C26.75 19.5523 26.3023 20 25.75 20C25.1977 20 24.75 19.5523 24.75 19V18H14.75C14.1977 18 13.75 17.5523 13.75 17C13.75 16.4477 14.1977 16 14.75 16H24.75V15C24.75 14.4477 25.1977 14 25.75 14ZM28.75 17C28.75 16.4477 29.1977 16 29.75 16H32.75C33.3023 16 33.75 16.4477 33.75 17C33.75 17.5523 33.3023 18 32.75 18H29.75C29.1977 18 28.75 17.5523 28.75 17ZM22.75 21C23.3023 21 23.75 21.4477 23.75 22V23H33.75C34.3023 23 34.75 23.4477 34.75 24C34.75 24.5523 34.3023 25 33.75 25H23.75V26C23.75 26.5523 23.3023 27 22.75 27C22.1977 27 21.75 26.5523 21.75 26V22C21.75 21.4477 22.1977 21 22.75 21ZM13.75 24C13.75 23.4477 14.1977 23 14.75 23H18.75C19.3023 23 19.75 23.4477 19.75 24C19.75 24.5523 19.3023 25 18.75 25H14.75C14.1977 25 13.75 24.5523 13.75 24ZM25.75 28C26.3023 28 26.75 28.4477 26.75 29V33C26.75 33.5523 26.3023 34 25.75 34C25.1977 34 24.75 33.5523 24.75 33V32H14.75C14.1977 32 13.75 31.5523 13.75 31C13.75 30.4477 14.1977 30 14.75 30H24.75V29C24.75 28.4477 25.1977 28 25.75 28ZM28.75 31C28.75 30.4477 29.1977 30 29.75 30H32.75C33.3023 30 33.75 30.4477 33.75 31C33.75 31.5523 33.3023 32 32.75 32H29.75C29.1977 32 28.75 31.5523 28.75 31Z" fill="#0BA5EC"/>
</svg>
