<svg width="48" height="48" viewBox="0 0 48 48" fill="none" xmlns="http://www.w3.org/2000/svg">
<rect width="48" height="48" rx="24" fill="#F2F9FE"/>
<path fill-rule="evenodd" clip-rule="evenodd" d="M23.7242 12.54C23.9072 12.4866 24.1017 12.4867 24.2847 12.5401L33.2804 15.1679C33.7069 15.2925 34 15.6835 34 16.1278V21.5168C34 27.6116 30.0996 33.0224 24.3174 34.949C24.1123 35.0173 23.8905 35.0173 23.6853 34.949C17.9016 33.0224 14 27.6105 14 21.5143V16.1278C14 15.6834 14.2933 15.2924 14.7198 15.1679L23.7242 12.54ZM16 16.8777V21.5143C16 26.6376 19.2089 31.1982 24.0013 32.9414C28.7922 31.1982 32 26.6388 32 21.5168V16.8775L24.0042 14.5418L16 16.8777Z" fill="#0BA5EC"/>
</svg>
