<svg width="217" height="142" viewBox="0 0 217 142" fill="none" xmlns="http://www.w3.org/2000/svg">
<path d="M206.326 54.1963C203.789 52.7968 201.013 51.8941 198.595 50.2461C177.629 35.3455 154.074 32.5265 129.858 34.9079C121.521 35.7248 112.788 38.9568 105.484 43.351C84.4802 55.5978 67.2217 72.1397 54.5701 93.0927C50.9121 99.1239 48.3716 106.011 46.8203 113.383C48.58 111.945 50.5229 110.444 52.2185 108.821C57.1861 104.2 62.0896 99.3947 67.3686 95.0805C69.614 93.2671 72.7295 92.1879 75.7258 91.3571C76.8254 90.9762 79.0513 92.0694 79.619 93.1155C80.1866 94.1617 79.7917 96.5769 78.9394 97.0793C65.0276 107.284 54.6691 121.228 43.3125 134.069C39.3252 138.557 35.9535 138.896 32.0246 134.665C22.4178 124.115 15.4869 111.809 11.1769 98.1814C11.0488 97.8116 11.5897 97.0028 12.3049 95.5123C24.5268 95.8356 25.3281 108.815 33.9099 116.406C34.424 113.742 34.6997 111.575 35.2868 109.715C48.4485 73.0501 73.8005 47.2835 107.432 29.4198C112.426 26.6542 118.419 24.9926 124.237 24.0129C145.613 20.5438 166.52 22.83 186.297 31.9285C192.664 34.9015 198.26 39.7984 203.728 44.3255C205.963 46.0369 207.052 49.1809 208.498 51.5796C207.774 52.4519 207.05 53.3241 206.326 54.1963Z" fill="#0BA5EC"/>
</svg>
