<svg width="48" height="48" viewBox="0 0 48 48" fill="none" xmlns="http://www.w3.org/2000/svg">
<rect width="48" height="48" rx="24" fill="#F2F9FE"/>
<path fill-rule="evenodd" clip-rule="evenodd" d="M13 14.5C13 13.9477 13.4477 13.5 14 13.5H34C34.5523 13.5 35 13.9477 35 14.5V33.086C35 33.1569 34.9926 33.2261 34.9786 33.2929C34.9926 33.3597 35 33.429 35 33.5C35 34.0523 34.5523 34.5 34 34.5H18.5078C17.9555 34.5 17.5078 34.0523 17.5078 33.5C17.5078 32.9477 17.9555 32.5 18.5078 32.5H33V21.5H15V27.0859C15 27.6382 14.5523 28.0859 14 28.0859C13.4477 28.0859 13 27.6382 13 27.0859V14.5ZM15 19.5V15.5H33V19.5H15ZM16 17.4983C16 16.946 16.4477 16.4983 17 16.4983H17.5C18.0523 16.4983 18.5 16.946 18.5 17.4983C18.5 18.0506 18.0523 18.4983 17.5 18.4983H17C16.4477 18.4983 16 18.0506 16 17.4983ZM19.5 17.5C19.5 16.9477 19.9477 16.5 20.5 16.5H31C31.5523 16.5 32 16.9477 32 17.5C32 18.0523 31.5523 18.5 31 18.5H20.5C19.9477 18.5 19.5 18.0523 19.5 17.5ZM26.6926 24.7923C27.0797 24.4058 27.7055 24.4021 28.0972 24.784L30.3374 26.968C30.7329 27.3535 30.7409 27.9866 30.3554 28.3821C29.9699 28.7775 29.3367 28.7856 28.9413 28.4L27.4075 26.9047L24.084 30.2227C23.6993 30.6068 23.0784 30.6132 22.6858 30.2373L20.1065 27.7672L14.7107 33.2185C14.3222 33.611 13.689 33.6143 13.2965 33.2258C12.904 32.8372 12.9008 32.2041 13.2893 31.8116L19.3771 25.6612C19.7611 25.2732 20.3852 25.2649 20.7795 25.6424L23.3629 28.1165L26.6926 24.7923Z" fill="#0BA5EC"/>
</svg>
