<svg width="48" height="48" viewBox="0 0 48 48" fill="none" xmlns="http://www.w3.org/2000/svg">
<rect width="48" height="48" rx="24" fill="#F2F9FE"/>
<path fill-rule="evenodd" clip-rule="evenodd" d="M19.6837 14.0513C20.2077 13.8767 20.774 14.1599 20.9487 14.6838L21.4487 16.1838C21.4836 16.2887 21.5002 16.3952 21.5002 16.5C23.0002 16.5 24.5001 16.5 26 16.5C26.5523 16.5 27 16.9477 27 17.5C27 18.0523 26.5523 18.5 26 18.5H24.7732C24.648 18.9389 24.4615 19.5332 24.2067 20.1977C23.686 21.5556 22.8437 23.3044 21.5826 24.5912L21.5787 24.5952C21.5638 24.6104 21.5488 24.6256 21.5338 24.6407C22.4251 25.2262 23.4442 25.7603 24.3343 26.184C24.9112 26.4586 25.4204 26.6805 25.7847 26.8334C25.9748 26.9132 26.1655 26.992 26.3579 27.0663C26.4167 27.0888 26.4721 27.1163 26.5239 27.148L28.0845 23.5976C28.2441 23.2345 28.6033 23 29 23C29.3966 23 29.7558 23.2345 29.9154 23.5976L32.7696 30.0909L33.9094 32.5842C34.1391 33.0865 33.918 33.6799 33.4157 33.9095C32.9134 34.1391 32.3201 33.918 32.0905 33.4158L31.2147 31.5H26.7852L25.9094 33.4158C25.6798 33.918 25.0865 34.1391 24.5842 33.9095C24.0819 33.6799 23.8609 33.0865 24.0905 32.5842L25.2303 30.0909L25.7265 28.962C25.6982 28.9539 25.67 28.9445 25.642 28.9338C25.43 28.8523 25.2199 28.7654 25.0105 28.6775C24.6239 28.5152 24.0855 28.2806 23.4748 27.9899C22.4189 27.4873 21.1049 26.7976 19.9859 26.0058C19.1762 26.6419 18.3425 27.2016 17.6252 27.6497C17.013 28.0322 16.473 28.341 16.085 28.5548C15.8762 28.6699 15.6663 28.7834 15.4536 28.8912L15.4498 28.8931C14.9564 29.1412 14.3547 28.9427 14.1066 28.4492C13.8585 27.9559 14.0573 27.3548 14.5506 27.1067L14.5516 27.1062C15.2416 26.7564 15.9097 26.3632 16.5655 25.9535C17.1619 25.581 17.818 25.1421 18.4555 24.6603C17.736 23.8548 17.2055 22.971 16.8337 22.2322C16.5622 21.6927 16.3661 21.212 16.237 20.8638C16.1724 20.6894 16.1242 20.5471 16.0915 20.4462C16.0733 20.3901 16.0556 20.3339 16.0392 20.2774L16.0386 20.2754C15.8868 19.7443 16.1941 19.1903 16.7252 19.0385C17.2557 18.8869 17.8086 19.1936 17.961 19.7237L17.9613 19.7248L17.9618 19.7264C18.0066 19.8756 18.0583 20.0228 18.1124 20.1688C18.221 20.462 18.3884 20.8726 18.6202 21.3331C18.9549 21.9981 19.4057 22.7307 19.9803 23.3649C20.0393 23.3073 20.0972 23.2495 20.1541 23.1914L20.1576 23.1879C21.1316 22.1923 21.8539 20.7473 22.3393 19.4816C22.4752 19.1272 22.5897 18.7944 22.6839 18.5H15C14.4477 18.5 14 18.0523 14 17.5C14 16.9477 14.4477 16.5 15 16.5H19.4459L19.0513 15.3163C18.8766 14.7923 19.1598 14.226 19.6837 14.0513ZM27.6747 29.5H30.3252L29 26.4851L27.6747 29.5Z" fill="#0BA5EC"/>
</svg>
