<svg width="48" height="48" viewBox="0 0 48 48" fill="none" xmlns="http://www.w3.org/2000/svg">
<path d="M0 24C0 10.7452 10.7452 0 24 0C37.2548 0 48 10.7452 48 24C48 37.2548 37.2548 48 24 48C10.7452 48 0 37.2548 0 24Z" fill="#F2F9FE"/>
<path d="M13 24C13 24 17 16 24 16C31 16 35 24 35 24C35 24 31 32 24 32C17 32 13 24 13 24Z" stroke="#0BA5EC" stroke-width="2" stroke-linecap="round" stroke-linejoin="round"/>
<path d="M24 27C25.6569 27 27 25.6569 27 24C27 22.3431 25.6569 21 24 21C22.3431 21 21 22.3431 21 24C21 25.6569 22.3431 27 24 27Z" stroke="#0BA5EC" stroke-width="2" stroke-linecap="round" stroke-linejoin="round"/>
</svg>
